<svg width="106" height="107" viewBox="0 0 106 107" fill="none" xmlns="http://www.w3.org/2000/svg">
<g clip-path="url(#clip0_1659_49002)">
<path d="M53.0005 105.767C81.8074 105.767 105.16 82.4144 105.16 53.6076C105.16 24.8008 81.8074 1.44824 53.0005 1.44824C24.1937 1.44824 0.841187 24.8008 0.841187 53.6076C0.841187 82.4144 24.1937 105.767 53.0005 105.767Z" fill="white" stroke="#240642" stroke-width="1.68254" stroke-miterlimit="10"/>
<mask id="mask0_1659_49002" style="mask-type:luminance" maskUnits="userSpaceOnUse" x="0" y="1" width="106" height="105">
<path d="M53.0005 105.767C81.8074 105.767 105.16 82.4144 105.16 53.6076C105.16 24.8008 81.8074 1.44824 53.0005 1.44824C24.1937 1.44824 0.841187 24.8008 0.841187 53.6076C0.841187 82.4144 24.1937 105.767 53.0005 105.767Z" fill="white"/>
</mask>
<g mask="url(#mask0_1659_49002)">
<path d="M-56.4408 -39.1258C-56.4408 -39.1258 -73.9507 -11.2471 -51.7873 12.2391C-29.624 35.7253 -33.7675 59.7971 -33.7675 59.7971C-33.7675 59.7971 -19.0884 62.394 -16.3603 53.56C-16.3603 53.56 -7.20145 70.9016 6.59405 60.0664C6.59405 60.0664 17.6244 82.6303 43.046 68.6127C68.4676 54.595 80.6155 74.7943 80.6155 74.7943C80.6155 74.7943 86.6372 68.1684 86.9133 61.4667C86.9133 61.4667 129.336 93.4755 138.497 52.976L166.283 -5.83791L-33.3838 -100.171C-33.3838 -100.171 -82.709 -63.1051 -56.4408 -39.1258Z" fill="#240642"/>
</g>
<path d="M28.6096 83.8174H29.4446V81.3664H30.5848C32.4163 81.3664 33.0897 80.5135 33.0897 79.4451C33.0897 78.3767 32.4163 77.5328 30.6028 77.5328H28.6096V83.8174ZM29.4446 80.684V78.233H30.5938C31.7968 78.233 32.2098 78.7538 32.2098 79.463C32.2098 80.1723 31.7968 80.684 30.5938 80.684H29.4446ZM36.0211 83.9431C37.5205 83.9431 38.4183 82.9375 38.4183 81.4651C38.4183 79.9838 37.5205 78.9782 36.0211 78.9782C34.5128 78.9782 33.615 79.9838 33.615 81.4651C33.615 82.9375 34.5128 83.9431 36.0211 83.9431ZM36.0211 83.2877C35.0605 83.2877 34.441 82.6502 34.441 81.4651C34.441 80.28 35.0605 79.6336 36.0211 79.6336C36.9818 79.6336 37.5923 80.28 37.5923 81.4651C37.5923 82.6502 36.9818 83.2877 36.0211 83.2877ZM45.0543 79.1039L43.941 82.9375L42.8278 79.1039H42.0108L40.8975 82.8926L39.7932 79.1039H38.9403L40.4306 83.8174H41.2746L42.3699 80.0646L43.4832 83.8174H44.3181L45.8174 79.1039H45.0543ZM48.5816 78.9782C47.2438 78.9782 46.337 79.9209 46.337 81.4382C46.337 82.9106 47.181 83.9431 48.6354 83.9431C49.8475 83.9431 50.5567 83.2159 50.7273 82.336L49.9911 82.2103C49.8115 82.9465 49.3267 83.2877 48.6354 83.2877C47.594 83.2877 47.1451 82.5245 47.1271 81.6088H50.7632C50.853 80.0556 50.018 78.9782 48.5816 78.9782ZM47.1271 81.0162C47.172 80.3608 47.6299 79.6246 48.5816 79.6246C49.5512 79.6246 49.9552 80.3878 49.9552 81.0162H47.1271ZM51.8678 83.8174H52.6579V81.2407C52.6579 80.1005 53.1696 79.6875 53.9148 79.6875C54.1033 79.6875 54.2919 79.7144 54.4894 79.7683V79.068C54.3457 79.0141 54.1931 78.9782 53.9866 78.9782C53.412 78.9782 52.9272 79.2565 52.6579 79.885V79.1039H51.8678V83.8174ZM57.1037 78.9782C55.7659 78.9782 54.8592 79.9209 54.8592 81.4382C54.8592 82.9106 55.7031 83.9431 57.1575 83.9431C58.3696 83.9431 59.0788 83.2159 59.2494 82.336L58.5132 82.2103C58.3337 82.9465 57.8488 83.2877 57.1575 83.2877C56.1161 83.2877 55.6672 82.5245 55.6492 81.6088H59.2853C59.3751 80.0556 58.5402 78.9782 57.1037 78.9782ZM55.6492 81.0162C55.6941 80.3608 56.152 79.6246 57.1037 79.6246C58.0733 79.6246 58.4773 80.3878 58.4773 81.0162H55.6492ZM63.8016 77.5328V79.9209C63.5502 79.3373 62.9846 78.9782 62.2214 78.9782C60.9735 78.9782 60.0757 79.9838 60.0757 81.4651C60.0757 82.9375 60.9555 83.9431 62.2214 83.9431C62.9935 83.9431 63.5592 83.566 63.8016 82.9555V83.8174H64.5737V77.5328H63.8016ZM62.3741 83.2787C61.566 83.2787 60.9106 82.6951 60.9106 81.4651C60.9106 80.2172 61.566 79.6336 62.3741 79.6336C63.1821 79.6336 63.8465 80.2172 63.8465 81.4651C63.8465 82.6951 63.1821 83.2787 62.3741 83.2787ZM70.6706 78.9782C69.9075 78.9782 69.279 79.3463 68.9827 79.9299V77.5328H68.2106V83.8174H68.893L68.9827 83.0273C69.3149 83.6019 69.8895 83.9431 70.6526 83.9431C71.9634 83.9431 72.7266 82.8926 72.7266 81.4562C72.7266 79.9838 71.9186 78.9782 70.6706 78.9782ZM70.4372 83.2787C69.6292 83.2787 68.9648 82.6951 68.9648 81.4562C68.9648 80.2172 69.6202 79.6336 70.4372 79.6336C71.2452 79.6336 71.9006 80.2172 71.9006 81.4562C71.9006 82.6951 71.2452 83.2787 70.4372 83.2787ZM77.1645 79.1039L75.5843 82.8118L73.9772 79.1039H73.0974L75.1444 83.7096L74.9918 83.9969C74.6416 84.6883 74.48 84.9307 73.9772 84.9307C73.7887 84.9307 73.5283 84.8678 73.3039 84.778V85.4873C73.5373 85.5861 73.8156 85.6489 74.0311 85.6489C74.8661 85.6489 75.2701 85.2269 75.7908 84.0418L77.9635 79.1039H77.1645Z" fill="black"/>
<path d="M38.6718 35.1994V25.7693L37.2446 24.0712H42.1041L41.2189 26.0403V35.4703L42.6461 37.1685H37.7685L38.6718 35.1994ZM46.4406 34.7116C47.922 35.8075 49.2949 36.3555 50.5595 36.3555C51.2339 36.3555 51.7578 36.199 52.1311 35.8858C52.5045 35.5607 52.6912 35.103 52.6912 34.5129C52.6912 33.9709 52.5045 33.5193 52.1311 33.158C51.7578 32.7967 51.1075 32.4354 50.1801 32.0741L48.0846 31.3334C45.5675 30.4061 44.3089 29.0331 44.3089 27.2146C44.3089 26.5522 44.4655 25.962 44.7786 25.4442C45.0918 24.9263 45.5313 24.5228 46.0974 24.2338C46.6634 23.9448 47.3017 23.8002 48.0123 23.8002C48.6385 23.8002 49.2648 23.9146 49.8911 24.1435C50.5294 24.3603 51.1255 24.6734 51.6795 25.0829L53.7209 24.1254V28.0636L52.1673 26.7449C50.6016 25.4321 49.2769 24.7758 48.1929 24.7758C47.6389 24.7758 47.2054 24.9203 46.8923 25.2093C46.5791 25.4863 46.4226 25.8717 46.4226 26.3655C46.4226 26.8593 46.6032 27.2868 46.9645 27.6481C47.3258 28.0094 47.9159 28.3527 48.7349 28.6778L50.6317 29.3643C52.1131 29.8942 53.1849 30.4904 53.8473 31.1528C54.5097 31.8151 54.8409 32.6221 54.8409 33.5735C54.8409 34.3202 54.6603 34.9826 54.299 35.5607C53.9377 36.1267 53.4258 36.5723 52.7634 36.8975C52.101 37.2106 51.3423 37.3672 50.4872 37.3672C49.8489 37.3672 49.1865 37.2829 48.5 37.1143C47.8256 36.9336 47.2234 36.6867 46.6935 36.3736L44.6702 37.3491V33.3025L46.4406 34.7116ZM56.2998 30.6108C56.2998 29.2379 56.5467 28.0395 57.0405 27.0158C57.5463 25.9921 58.2569 25.2033 59.1722 24.6493C60.0875 24.0833 61.1594 23.8002 62.3878 23.8002C63.6523 23.8002 64.7423 24.0712 65.6576 24.6132C66.5849 25.1551 67.2955 25.9379 67.7893 26.9616C68.2831 27.9853 68.5299 29.2017 68.5299 30.6108C68.5299 32.0078 68.2831 33.2122 67.7893 34.2238C67.2955 35.2355 66.5849 36.0123 65.6576 36.5542C64.7423 37.0962 63.6523 37.3672 62.3878 37.3672C61.1353 37.3672 60.0514 37.0962 59.1361 36.5542C58.2208 36.0123 57.5162 35.2355 57.0224 34.2238C56.5407 33.2122 56.2998 32.0078 56.2998 30.6108ZM65.7298 30.5747C65.7298 28.6477 65.4468 27.1965 64.8808 26.221C64.3147 25.2454 63.4837 24.7577 62.3878 24.7577C61.3039 24.7577 60.4849 25.2454 59.9309 26.221C59.3769 27.1965 59.0999 28.6477 59.0999 30.5747C59.0999 34.4647 60.1959 36.4097 62.3878 36.4097C63.4958 36.4097 64.3268 35.922 64.8808 34.9464C65.4468 33.9589 65.7298 32.5016 65.7298 30.5747ZM30.3033 49.6458C31.339 48.6943 32.0978 47.7369 32.5795 46.7734C33.0733 45.7979 33.3202 44.7621 33.3202 43.6662C33.3202 42.7268 33.1275 42.0102 32.7421 41.5164C32.3687 41.0106 31.8328 40.7577 31.1343 40.7577C30.4358 40.7577 29.8938 40.9925 29.5084 41.4622C29.1351 41.9199 28.9363 42.5642 28.9123 43.3952C28.9002 43.9612 28.8039 44.3767 28.6232 44.6417C28.4426 44.9067 28.1595 45.0391 27.7742 45.0391C27.4008 45.0391 27.1118 44.9127 26.907 44.6598C26.7023 44.4069 26.5999 44.0395 26.5999 43.5578C26.5999 42.8472 26.8107 42.2089 27.2322 41.6429C27.6537 41.0648 28.2378 40.6132 28.9845 40.288C29.7433 39.9628 30.5983 39.8002 31.5498 39.8002C32.9468 39.8002 34.0548 40.1435 34.8738 40.83C35.6927 41.5044 36.1022 42.4257 36.1022 43.5939C36.1022 44.5935 35.759 45.563 35.0725 46.5024C34.386 47.4418 33.2178 48.5257 31.5678 49.7541L30.3936 50.82H34.2596L36.2648 48.7606V53.1685H26.4915L30.3033 49.6458ZM37.6545 40.0712H47.2833L46.0187 42.4377C44.1158 45.6774 42.6766 49.2543 41.7011 53.1685H38.5759C39.2503 51.0729 40.1415 49.1098 41.2495 47.2792C42.3695 45.4486 43.6461 43.8348 45.0793 42.4377H39.2623L37.6545 44.2804V40.0712ZM47.3462 46.7192C47.3462 44.4671 47.8279 42.7509 48.7914 41.5706C49.7549 40.3904 51.164 39.8002 53.0187 39.8002C54.8734 39.8002 56.2885 40.3904 57.264 41.5706C58.2395 42.7388 58.7273 44.449 58.7273 46.7011C58.7273 48.881 58.2395 50.537 57.264 51.669C56.3005 52.8011 54.8854 53.3672 53.0187 53.3672C51.176 53.3672 49.7669 52.8011 48.7914 51.669C47.8279 50.537 47.3462 48.887 47.3462 46.7192ZM55.9452 46.6289C55.9452 44.726 55.6923 43.2808 55.1865 42.2932C54.6927 41.2936 53.9701 40.7938 53.0187 40.7938C52.0672 40.7938 51.3446 41.2876 50.8508 42.2752C50.3571 43.2627 50.1102 44.714 50.1102 46.6289C50.1102 48.5558 50.351 49.995 50.8328 50.9464C51.3145 51.8979 52.0431 52.3736 53.0187 52.3736C53.9701 52.3736 54.6927 51.8858 55.1865 50.9103C55.6923 49.9348 55.9452 48.5076 55.9452 46.6289ZM60.1894 46.7192C60.1894 44.4671 60.6711 42.7509 61.6346 41.5706C62.5981 40.3904 64.0072 39.8002 65.8619 39.8002C67.7166 39.8002 69.1317 40.3904 70.1072 41.5706C71.0827 42.7388 71.5705 44.449 71.5705 46.7011C71.5705 48.881 71.0827 50.537 70.1072 51.669C69.1437 52.8011 67.7286 53.3672 65.8619 53.3672C64.0192 53.3672 62.6101 52.8011 61.6346 51.669C60.6711 50.537 60.1894 48.887 60.1894 46.7192ZM68.7884 46.6289C68.7884 44.726 68.5355 43.2808 68.0297 42.2932C67.5359 41.2936 66.8133 40.7938 65.8619 40.7938C64.9104 40.7938 64.1878 41.2876 63.6941 42.2752C63.2003 43.2627 62.9534 44.714 62.9534 46.6289C62.9534 48.5558 63.1942 49.995 63.676 50.9464C64.1577 51.8979 64.8864 52.3736 65.8619 52.3736C66.8133 52.3736 67.5359 51.8858 68.0297 50.9103C68.5355 49.9348 68.7884 48.5076 68.7884 46.6289ZM75.2366 51.1994V43.2868L72.9423 43.5578L77.7657 39.8002V51.4703L79.1928 53.1685H74.3514L75.2366 51.1994Z" fill="white"/>
<path d="M57.9654 93.9974C57.7685 93.755 57.6607 93.4521 57.6607 93.1408V90.8889C57.6607 89.2901 56.9068 88.3745 55.5755 88.3745C53.8016 88.3745 53.4583 89.3406 52.9854 90.1635C52.9618 90.2039 52.9113 90.2174 52.8709 90.1955L52.7717 90.1433C52.7296 90.1215 52.7144 90.0676 52.738 90.0255L52.8726 89.7899C52.9585 89.6435 53.0039 89.4786 53.0039 89.3086V88.9686C53.0039 88.7498 52.8255 88.5714 52.6067 88.5714H50.6746C50.3835 88.5714 50.227 88.9131 50.4171 89.1335L50.6982 89.4617C50.9826 89.7916 51.1375 90.2123 51.1375 90.6482V92.9859C51.1375 93.2451 51.0819 93.5009 50.9742 93.7382L50.7504 94.2313C50.6477 94.4568 50.8126 94.7127 51.06 94.7127H53.4735C53.7613 94.7127 53.9195 94.3777 53.736 94.1556L53.5408 93.9183C53.3422 93.6759 53.2328 93.3713 53.2328 93.0566V91.7657C53.2328 91.3147 53.3405 90.8687 53.566 90.4783C53.8404 90.0053 54.1971 89.763 54.6465 89.763C55.249 89.763 55.5738 90.1921 55.5738 90.968V93.0633C55.5738 93.3158 55.5217 93.5665 55.419 93.7988L55.2271 94.233C55.1278 94.4585 55.2928 94.711 55.5385 94.711H57.829C58.1152 94.711 58.2734 94.3777 58.0933 94.1556L57.9637 93.9957L57.9654 93.9974Z" fill="#240642"/>
<path d="M62.2671 93.8141C62.1897 93.8292 62.1139 93.8393 62.0483 93.841C61.4256 93.841 61.126 93.4488 61.126 92.6427V89.4383H62.2603C62.3916 89.4383 62.4976 89.3322 62.4976 89.201V88.8122C62.4976 88.6809 62.3916 88.5749 62.2603 88.5749H60.8096C60.7692 88.5749 60.7355 88.5412 60.7355 88.5008V88.3914C60.7355 88.3511 60.7675 88.3174 60.8079 88.3174H60.956C61.0503 88.3174 61.126 88.2417 61.126 88.1474V87.2992C61.126 87.1376 60.9947 87.0063 60.8332 87.0063H59.9984C59.8469 87.0063 59.7123 87.1056 59.6668 87.2504C59.5709 87.5685 59.3387 88.5732 58.5847 88.5732H58.3608C58.2296 88.5732 58.1235 88.6792 58.1235 88.8105V89.1993C58.1235 89.3306 58.2296 89.4366 58.3608 89.4366H59.0526V92.7218C59.0526 94.0581 59.7325 94.7952 60.9644 94.7952C61.5787 94.7952 62.1375 94.5714 62.4758 94.1658C62.607 94.0076 62.4707 93.772 62.2687 93.8107L62.2671 93.8141Z" fill="#240642"/>
<path d="M50.1531 93.5735C49.7862 93.6392 49.5371 93.3514 49.5371 92.9003V90.7259C49.5371 89.1759 48.5542 88.3428 46.6457 88.3428C44.9358 88.3428 43.7695 88.9991 43.7661 89.9921C43.7661 90.1705 43.8317 90.3455 43.931 90.5138C44.0892 90.7562 44.3753 90.9194 44.7035 90.9194C45.2017 90.9194 45.6073 90.5424 45.6073 90.0796C45.6073 89.6033 45.2034 89.3627 45.0822 89.3172C45.1697 89.2432 45.5433 88.9554 46.0954 88.9554C46.9739 88.9554 47.4451 89.6219 47.4451 90.6586V91.0709C46.7854 91.0709 46.0465 91.1365 45.5265 91.2644C44.2542 91.5421 43.5826 92.2675 43.5826 93.1696C43.5826 94.1878 44.3922 94.8223 45.6763 94.8223C46.5666 94.8223 47.3071 94.5109 47.6538 93.9892C47.8726 94.4285 48.359 94.7062 48.9834 94.7062C49.7912 94.7062 50.2153 94.2837 50.3483 93.7839C50.3836 93.6408 50.2742 93.5516 50.1531 93.5752V93.5735ZM47.4434 93.0854C47.3744 93.5702 47.0395 93.8596 46.5531 93.8596C46.0213 93.8596 45.6628 93.5012 45.6628 92.934C45.6628 92.4947 45.8597 92.111 46.2872 91.9259C46.5767 91.798 47.026 91.729 47.4434 91.7172V93.0854Z" fill="#240642"/>
<path d="M69.4887 93.5735C69.1219 93.6392 68.8728 93.3514 68.8728 92.9003V90.7259C68.8728 89.1759 67.8899 88.3428 65.9814 88.3428C64.2715 88.3428 63.1051 88.9991 63.1018 89.9921C63.1018 90.1705 63.1674 90.3455 63.2667 90.5138C63.4249 90.7562 63.711 90.9194 64.0392 90.9194C64.5374 90.9194 64.943 90.5424 64.943 90.0796C64.943 89.6033 64.5391 89.3627 64.4179 89.3172C64.5054 89.2432 64.879 88.9554 65.431 88.9554C66.3096 88.9554 66.7808 89.6219 66.7808 90.6586V91.0709C66.1211 91.0709 65.3822 91.1365 64.8622 91.2644C63.5898 91.5421 62.9183 92.2675 62.9183 93.1696C62.9183 94.1878 63.7279 94.8223 65.012 94.8223C65.9023 94.8223 66.6428 94.5109 66.9895 93.9892C67.2083 94.4285 67.6947 94.7062 68.3191 94.7062C69.1269 94.7062 69.551 94.2837 69.684 93.7839C69.7193 93.6408 69.6099 93.5516 69.4887 93.5752V93.5735ZM66.7791 93.0854C66.7101 93.5702 66.3752 93.8596 65.8888 93.8596C65.357 93.8596 64.9985 93.5012 64.9985 92.934C64.9985 92.4947 65.1954 92.111 65.6229 91.9259C65.9124 91.798 66.3617 91.729 66.7791 91.7172V93.0854Z" fill="#240642"/>
<path d="M43.9091 86.5266H42.8606C42.6351 86.5266 42.4987 86.7774 42.6233 86.9658L42.8034 87.2385C42.9565 87.4724 42.9868 87.7653 42.8841 88.0244L41.0026 92.7587C40.9167 92.9859 40.8275 93.1424 40.7888 93.1811C40.7669 93.2013 40.7316 93.2081 40.7047 93.1879L40.6054 93.1088C40.5734 93.0852 40.5751 93.0516 40.6054 93.0179C40.6609 92.9438 40.6946 92.8563 40.7148 92.7755C40.7383 92.6796 40.7299 92.5769 40.6946 92.4844L39.1008 88.2719C38.9948 87.9942 38.9998 87.6862 39.1126 87.4118L39.2825 86.9961C39.3734 86.7723 39.2102 86.5266 38.9678 86.5266H36.3996C36.0529 86.5266 35.8728 86.9389 36.1084 87.193L36.2717 87.3698C36.5712 87.6963 36.8085 88.0733 36.9718 88.4856L39.2607 94.4653C39.3213 94.6167 39.4677 94.716 39.6292 94.716H40.8965C41.0598 94.716 41.2062 94.6167 41.2651 94.4653L44.2289 86.9911C44.3181 86.7673 44.1531 86.5249 43.9125 86.5249L43.9091 86.5266Z" fill="#240642"/>
<path d="M8.81043 49.0467C10.2376 26.1042 29.9943 8.14325 52.8729 8.18028C66.8249 8.08098 80.368 14.8315 88.6735 26.0419C90.3161 28.2517 91.7517 30.6079 92.9551 33.0734C95.3449 38.0097 96.8058 43.3801 97.1626 48.7993C97.1727 49.4288 96.2908 49.555 96.1578 48.907C93.5071 30.3588 79.1175 15.1024 60.6079 11.8829C42.2448 8.49332 23.4744 17.7212 14.7127 34.2044C12.2134 38.8158 10.5759 43.9018 9.81518 49.1511C9.77478 49.4271 9.51897 49.619 9.24296 49.5786C8.98209 49.5415 8.79528 49.3059 8.81043 49.0484V49.0467Z" fill="#AC55FF"/>
</g>
<defs>
<clipPath id="clip0_1659_49002">
<rect width="106" height="106" fill="white" transform="translate(0 0.606445)"/>
</clipPath>
</defs>
</svg>
