<svg width="762" height="216" viewBox="0 0 762 216" fill="none" xmlns="http://www.w3.org/2000/svg">
<path fill-rule="evenodd" clip-rule="evenodd" d="M0 72L72 0H216L288 72L216 144L144 216L0 72ZM216 144L144 72L216 0V144Z" fill="#0D61FF"/>
<path d="M599.25 179.996H628.762V117.106C628.762 102.655 637.92 95.3284 649.318 95.3284C659.698 95.3284 666.007 101.434 666.007 115.071V179.996H695.315V117.106C695.315 102.655 704.474 95.3284 715.871 95.3284C726.455 95.3284 732.561 101.434 732.561 115.071V179.996H761.869V111.814C761.869 83.5244 746.604 71.1094 726.862 71.1094C713.429 71.1094 699.589 76.8074 691.041 89.6304C685.953 77.0114 675.369 71.1094 661.326 71.1094C645.451 71.1094 634.053 79.8604 628.762 89.8334V73.5514H599.25V179.996Z" fill="#17181A"/>
<path d="M534.171 182.257C563.276 182.257 581.593 169.435 585.053 146.436H557.17C555.338 155.391 548.622 161.294 534.986 161.294C518.907 161.294 509.341 151.117 508.527 133.41H585.257V125.269C585.257 87.2099 560.834 71.1309 533.357 71.1309C502.421 71.1309 478.608 92.9079 478.608 126.49V128.119C478.608 162.108 502.014 182.257 534.171 182.257ZM508.934 115.296C511.173 100.235 520.128 91.4839 533.357 91.4839C547.401 91.4839 555.542 99.2179 556.56 115.296H508.934Z" fill="#17181A"/>
<path d="M398.084 182.25C441.639 182.25 466.469 156.402 466.469 117.528V102.06H401.137V126.076H433.905C433.294 142.766 423.322 156.809 398.898 156.809C370.404 156.809 358.396 136.66 358.396 108.573V106.945C358.396 77.23 373.254 58.302 398.491 58.302C415.995 58.302 427.189 66.036 430.038 83.132H462.806C459.346 47.108 430.445 32.25 398.084 32.25C355.14 32.25 324 62.779 324 106.538V108.166C324 151.314 350.459 182.25 398.084 182.25Z" fill="#17181A"/>
</svg>
