<svg width="85" height="86" viewBox="0 0 85 86" fill="none" xmlns="http://www.w3.org/2000/svg">
<path fill-rule="evenodd" clip-rule="evenodd" d="M42.042 17.4175C45.1353 21.4843 50.1474 29.4604 48.9203 34.6518V34.6543C48.6257 35.9532 50.4536 36.4399 50.8545 35.1859C51.7729 31.6494 50.5112 28.0053 49.1458 24.7979C48.2095 22.7042 47.12 20.7067 45.8955 18.7861C52.0148 20.2973 57.7329 23.5289 62.3491 27.776C68.6024 33.5861 72.1773 41.0921 70.5865 49.6817C69.3184 57.7474 63.9861 64.7116 56.9348 68.6823C52.804 71.0135 48.0596 72.5621 43.3037 72.4994C35.3788 72.4879 27.1696 69.8262 21.8232 63.8201C15.5379 56.8534 13.3502 46.3834 20.7601 39.4397C24.1557 36.1889 28.6029 34.2368 33.0169 32.6946C34.5616 32.1733 36.1192 31.748 37.7139 31.3446C38.1545 31.2421 38.5183 30.8963 38.6169 30.4249C38.7527 29.7793 38.3389 29.1453 37.6934 29.0095C36.7878 28.8187 35.8694 28.7341 34.9497 28.7072C26.5651 28.5714 18.1138 33.2928 13.8241 40.5272C7.77064 50.8435 13.5346 64.139 22.6084 70.6114C28.7413 75.106 36.4765 76.9223 43.9889 76.7378C49.2649 76.5226 54.4358 74.691 58.8843 71.9627C67.8006 66.5471 73.5889 57.2658 73.6619 46.7395C74.0056 32.7573 61.4999 21.7857 48.6429 18.2044C51.9595 17.9512 55.3289 17.0046 57.9403 15.4577C59.5017 14.474 61.0196 12.9869 61.4602 11.1078C61.6792 10.119 60.5418 9.36584 59.7156 9.96273C58.5616 10.8286 57.3716 11.4998 56.0651 12.1313C55.1121 12.6014 54.0951 13.0548 53.0717 13.4109C49.7452 14.5701 46.2215 15.2233 42.7029 15.523C41.7768 15.5986 41.3606 16.7758 42.042 17.4175Z" fill="#240642"/>
</svg>
