<svg width="194" height="66" viewBox="0 0 194 66" fill="none" xmlns="http://www.w3.org/2000/svg">
<path d="M97 12.1719L116 5.9375V0H78V5.9375L97 12.1719Z" fill="#00835A"/>
<path d="M78 11.5781V38H86.9062V14.5469L78 11.5781Z" fill="#00835A"/>
<path d="M116 11.5781V38H107.094V14.5469L116 11.5781Z" fill="#00835A"/>
<path d="M101.453 16.3281L99.4033 17.0114C98.5116 17.3086 98.0657 17.4572 97.6097 17.5163C97.2048 17.5687 96.7951 17.5687 96.3904 17.5163C95.9342 17.4572 95.4884 17.3086 94.5967 17.0114L92.5469 16.3281V38H101.453V16.3281Z" fill="#00835A"/>
<path d="M45.4814 64.756H54.6334V61.9412H48.4924V58.8062H53.4022V55.9939H48.4924V53.0872H54.6334V50.2773H45.4814V64.756Z" fill="#00835A"/>
<path d="M116.664 64.756H125.816V61.9412H119.675V58.8062H124.585V55.9939H119.675V53.0872H125.816V50.2773H116.664V64.756Z" fill="#00835A"/>
<path d="M7.5087 60.5552L3.9095 50.2862H0V64.7551H2.8421V54.9677L6.3172 64.76H8.6828L12.0611 54.9999V64.7551H14.9404V50.2812H11.1501L7.5087 60.5552Z" fill="#00835A"/>
<path d="M68.236 55.2274V54.6069C68.236 51.73 66.325 50.2754 63.768 50.2754H57.5625V64.7467H60.566V59.7475H62.7652L65.247 64.7566H68.581L65.677 59.2015C67.524 58.5561 68.236 57.1685 68.236 55.2274ZM65.228 55.1877C65.228 56.4437 64.4829 56.9252 63.5124 56.9252H60.5337V53.0877H63.5124C64.4829 53.0877 65.228 53.5842 65.228 54.8948V55.1877Z" fill="#00835A"/>
<path d="M113.931 55.2274V54.6069C113.931 51.73 112.017 50.2754 109.463 50.2754H103.257V64.7467H106.261V59.7475H108.458L110.94 64.7566H114.283L111.387 59.2015C113.219 58.5561 113.931 57.1685 113.931 55.2274ZM110.922 55.1877C110.922 56.4437 110.178 56.9252 109.207 56.9252H106.229V53.0877H109.207C110.178 53.0877 110.922 53.5842 110.922 54.8948V55.1877Z" fill="#00835A"/>
<path d="M23.4365 50.0762C20.1352 50.0762 17.71 52.5087 17.71 56.1253V58.893C17.71 62.512 20.1054 64.9694 23.4365 64.9694C26.7676 64.9694 29.2225 62.512 29.2225 58.893V56.1253C29.2225 52.4988 26.7354 50.0762 23.4365 50.0762ZM26.2091 58.9228C26.2091 61.0277 24.9382 62.1496 23.4291 62.1496C21.9199 62.1496 20.7235 61.0525 20.7235 58.9228V56.1775C20.7235 54.0428 21.9075 52.9133 23.4291 52.9133C24.9507 52.9133 26.2091 54.0477 26.2091 56.1775V58.9228Z" fill="#00835A"/>
<path d="M36.925 50.2383H31.7471V64.7567H36.925C40.2537 64.7567 42.7458 62.2993 42.7458 58.6803V56.2899C42.7458 52.6659 40.2835 50.2383 36.925 50.2383ZM39.6679 58.6356C39.6679 60.7405 38.3995 61.8625 36.8754 61.8625H34.7258V53.0779H36.8828C38.4069 53.0779 39.6753 54.2098 39.6753 56.3048L39.6679 58.6356Z" fill="#00835A"/>
<path d="M179.592 55.2274V54.6069C179.592 51.73 177.681 50.2754 175.124 50.2754H168.919V64.7467H171.917V59.7475H174.114L176.596 64.7566H179.94L177.04 59.2015C178.867 58.5561 179.592 57.1685 179.592 55.2274ZM176.581 55.1877C176.581 56.4437 175.837 56.9252 174.869 56.9252H171.89V53.0877H174.869C175.842 53.0877 176.581 53.5842 176.581 54.8948V55.1877Z" fill="#00835A"/>
<path d="M162.942 59.1198C162.942 61.2545 161.924 62.168 160.447 62.168C158.97 62.168 157.992 61.2595 157.992 59.1198V50.2832H154.989V59.1198C154.989 62.7389 157.19 64.9605 160.449 64.9605C163.709 64.9605 165.96 62.7215 165.96 59.1198V50.2832H162.942V59.1198Z" fill="#00835A"/>
<path d="M132.564 50.2535L127.416 64.7571H130.422L131.393 61.8753H136.752L137.712 64.7199H140.837L135.796 50.2461L132.564 50.2535ZM132.316 59.1672L134.163 53.751L135.9 59.1796L132.316 59.1672Z" fill="#00835A"/>
<path d="M190.519 50.2852L187.193 56.5453L183.966 50.2852H180.657L185.649 59.3676V64.7614H188.652V59.4246L193.808 50.2852H190.519Z" fill="#00835A"/>
<path d="M79.5767 59.3895L74.5257 50.2773H71.1377V64.756H74.0767V54.8992L79.6437 64.7536H82.5057V50.2773H79.5767V59.3895Z" fill="#00835A"/>
<path d="M89.8927 53.0837H93.9737V64.7501H96.9797V53.0837H101.051V50.2812H89.8877L89.8927 53.0837Z" fill="#00835A"/>
<path d="M147.259 65.0025C143.99 65.0025 141.736 63.5802 141.736 60.4749V60.0505H144.673V60.4029C144.673 62.0089 145.914 62.416 147.185 62.416C148.535 62.416 149.57 62.0089 149.57 60.8075C149.57 59.6062 148.019 59.1296 146.095 58.5463C144.442 58.0498 142.009 57.2183 142.009 54.2495C142.009 51.3677 144.208 50 147.239 50C149.721 50 152.283 51.1095 152.283 54.2198V54.535H149.404V54.3315C149.404 53.2418 148.552 52.5939 147.259 52.5939C146.077 52.5939 145.097 52.9265 145.097 53.9616C145.097 55.3665 146.877 55.6172 148.522 56.1335C150.168 56.6498 152.618 57.5261 152.618 60.3732C152.618 63.7117 150.322 65.0025 147.259 65.0025Z" fill="#00835A"/>
</svg>
