<svg width="89" height="89" viewBox="0 0 89 89" fill="none" xmlns="http://www.w3.org/2000/svg">
<path d="M52.1237 52.6755C53.6824 55.1924 54.703 58.6525 54.21 61.6232C53.8104 63.8079 53.2942 65.797 50.9514 66.6296C47.6789 67.7034 44.3423 65.4688 42.9622 62.6674C41.2235 59.277 41.5819 55.2595 42.5062 51.7447C42.8247 50.5765 43.174 49.4038 43.7112 48.3044C45.2854 45.0564 47.7966 42.3473 50.8591 40.4856C59.8642 34.7862 72.0721 33.931 81.9859 37.5397C82.3346 37.6685 82.5135 38.0554 82.3848 38.4042C82.2597 38.7436 81.89 38.922 81.55 38.8136C79.2518 38.104 76.8857 37.632 74.4969 37.4266C67.1418 36.8104 58.976 38.3024 52.8239 42.4785C50.645 44.3484 48.9117 46.8888 47.9886 49.587C47.6416 50.5952 47.4822 51.6566 47.3368 52.7157C47.0906 54.7834 47.0643 56.7987 47.7236 58.7364C48.0007 59.5441 48.414 60.1728 48.7926 60.5261C48.9801 60.7011 49.1611 60.8101 49.2635 60.8507C49.3137 60.8754 49.3414 60.8792 49.3245 60.8841C49.3071 60.8901 49.243 60.8933 49.1134 60.9412L48.8421 61.0433C49.0176 60.961 49.1444 61.0163 49.3602 61.0283C49.4883 61.0376 49.6457 61.0374 49.8059 61.0034C50.3679 60.9006 50.6865 60.3966 50.9261 59.9103C51.1052 59.5524 51.2599 59.1485 51.3672 58.72C51.8052 56.977 51.7739 54.9244 51.1043 53.2176C50.8282 52.5607 51.7323 52.0843 52.1205 52.671L52.1237 52.6755Z" fill="white"/>
<path d="M41.5331 42.7045C39.0609 40.7381 35.9468 39.6665 32.8981 38.9437C28.0356 37.8448 22.5794 37.827 18.0625 40.0449C16.9068 40.6213 15.8177 41.3319 14.8478 42.1844C11.0752 45.6911 8.77629 50.5023 8.40512 55.6729C8.27762 57.2603 8.29306 58.8608 8.47387 60.4542C8.5334 60.8522 8.24926 61.2235 7.84846 61.2673C7.56595 61.2995 7.30429 61.1618 7.16324 60.9358C6.83815 60.4149 6.57556 59.873 6.34462 59.3173C5.88175 58.2025 5.55143 57.0371 5.33993 55.8462C4.30456 50.337 6.08774 44.3834 9.80165 40.1746C10.3122 39.5762 10.8748 38.9991 11.4478 38.4575C12.3013 37.6985 13.249 37.0237 14.2304 36.4396C22.1842 31.762 33.121 33.5475 40.128 39.1472C41.0459 39.9149 41.9113 40.7758 42.5789 41.8143C42.7853 42.1356 42.6925 42.5635 42.3706 42.771C42.1017 42.9438 41.7606 42.9071 41.5341 42.7051L41.5331 42.7045Z" fill="white"/>
<path d="M72.4686 23.242C72.9899 28.539 80.3257 34.459 84.5643 37.2913C85.4378 37.7599 85.3197 39.0819 84.3859 39.3904C82.8883 39.89 81.4347 40.5681 80.048 41.3565C77.4997 42.82 74.9769 44.7126 73.2105 46.9983C72.4779 47.9864 71.852 49.0047 71.7445 50.1909C71.6483 51.5532 70.4656 52.5794 69.1034 52.4832C67.5408 52.3905 66.4569 50.8038 66.9022 49.3112C68.1829 44.0936 74.1351 40.5332 78.7317 38.6197C80.2977 37.9848 81.9088 37.4638 83.5854 37.126L83.2217 39.2894C79.0232 36.3063 75.0595 32.9052 72.274 28.5065C71.3363 26.9502 70.5817 25.2408 70.4692 23.3675C70.4378 22.8149 70.8603 22.341 71.4119 22.3089C71.9606 22.2767 72.4325 22.6953 72.4692 23.2409L72.4686 23.242Z" fill="white"/>
</svg>
