<svg width="40" height="41" viewBox="0 0 40 41" fill="none" xmlns="http://www.w3.org/2000/svg">
<circle cx="20" cy="20.7266" r="20" fill="#AC55FF"/>
<path d="M28 20.7266C28 16.3083 24.4183 12.7266 20 12.7266C15.5817 12.7266 12 16.3083 12 20.7266C12 24.7196 14.9255 28.0292 18.75 28.6294V23.0391H16.7188V20.7266H18.75V18.9641C18.75 16.9591 19.9443 15.8516 21.7717 15.8516C22.647 15.8516 23.5625 16.0078 23.5625 16.0078V17.9766H22.5537C21.5599 17.9766 21.25 18.5932 21.25 19.2259V20.7266H23.4688L23.1141 23.0391H21.25V28.6294C25.0745 28.0292 28 24.7196 28 20.7266" fill="white"/>
</svg>
