<svg width="106" height="107" viewBox="0 0 106 107" fill="none" xmlns="http://www.w3.org/2000/svg">
<g clip-path="url(#clip0_1659_49020)">
<path d="M53.0009 105.767C81.8077 105.767 105.16 82.4144 105.16 53.6076C105.16 24.8008 81.8077 1.44824 53.0009 1.44824C24.1941 1.44824 0.841553 24.8008 0.841553 53.6076C0.841553 82.4144 24.1941 105.767 53.0009 105.767Z" fill="white" stroke="#240642" stroke-width="1.68254" stroke-miterlimit="10"/>
<mask id="mask0_1659_49020" style="mask-type:luminance" maskUnits="userSpaceOnUse" x="0" y="1" width="106" height="105">
<path d="M53.0009 105.767C81.8077 105.767 105.16 82.4144 105.16 53.6076C105.16 24.8008 81.8077 1.44824 53.0009 1.44824C24.1941 1.44824 0.841553 24.8008 0.841553 53.6076C0.841553 82.4144 24.1941 105.767 53.0009 105.767Z" fill="white"/>
</mask>
<g mask="url(#mask0_1659_49020)">
<path d="M-56.441 -39.1258C-56.441 -39.1258 -73.9509 -11.247 -51.7876 12.2391C-29.6242 35.7253 -33.7678 59.7972 -33.7678 59.7972C-33.7678 59.7972 -19.0887 62.394 -16.3605 53.56C-16.3605 53.56 -7.2017 70.9016 6.5938 60.0665C6.5938 60.0665 17.6241 82.6304 43.0458 68.6127C68.4674 54.595 80.6152 74.7943 80.6152 74.7943C80.6152 74.7943 86.637 68.1684 86.913 61.4667C86.913 61.4667 129.336 93.4756 138.497 52.976L166.283 -5.8379L-33.384 -100.171C-33.384 -100.171 -82.7092 -63.1051 -56.441 -39.1258Z" fill="#240642"/>
</g>
<path d="M57.966 93.9979C57.7691 93.7555 57.6614 93.4526 57.6614 93.1412V90.8894C57.6614 89.2905 56.9074 88.375 55.5761 88.375C53.8023 88.375 53.4589 89.341 52.986 90.164C52.9624 90.2044 52.9119 90.2179 52.8716 90.196L52.7723 90.1438C52.7302 90.1219 52.715 90.0681 52.7386 90.026L52.8732 89.7904C52.9591 89.644 53.0045 89.479 53.0045 89.3091V88.9691C53.0045 88.7503 52.8261 88.5719 52.6073 88.5719H50.6753C50.3841 88.5719 50.2276 88.9136 50.4178 89.134L50.6988 89.4622C50.9832 89.7921 51.1381 90.2128 51.1381 90.6487V92.9864C51.1381 93.2456 51.0825 93.5014 50.9748 93.7387L50.751 94.2318C50.6483 94.4573 50.8133 94.7131 51.0607 94.7131H53.4741C53.7619 94.7131 53.9201 94.3782 53.7366 94.1561L53.5414 93.9188C53.3428 93.6764 53.2334 93.3718 53.2334 93.0571V91.7662C53.2334 91.3152 53.3411 90.8692 53.5666 90.4787C53.841 90.0058 54.1978 89.7635 54.6471 89.7635C55.2496 89.7635 55.5744 90.1926 55.5744 90.9685V93.0638C55.5744 93.3163 55.5223 93.567 55.4196 93.7993L55.2277 94.2335C55.1285 94.459 55.2934 94.7115 55.5391 94.7115H57.8297C58.1158 94.7115 58.274 94.3782 58.0939 94.1561L57.9643 93.9962L57.966 93.9979Z" fill="#240642"/>
<path d="M62.2674 93.8141C62.19 93.8292 62.1143 93.8393 62.0486 93.841C61.4259 93.841 61.1264 93.4488 61.1264 92.6427V89.4383H62.2607C62.392 89.4383 62.498 89.3322 62.498 89.201V88.8122C62.498 88.6809 62.392 88.5749 62.2607 88.5749H60.81C60.7696 88.5749 60.7359 88.5412 60.7359 88.5008V88.3914C60.7359 88.3511 60.7679 88.3174 60.8083 88.3174H60.9564C61.0506 88.3174 61.1264 88.2417 61.1264 88.1474V87.2992C61.1264 87.1376 60.9951 87.0063 60.8335 87.0063H59.9988C59.8473 87.0063 59.7126 87.1056 59.6672 87.2504C59.5713 87.5685 59.339 88.5732 58.585 88.5732H58.3612C58.2299 88.5732 58.1239 88.6792 58.1239 88.8105V89.1993C58.1239 89.3306 58.2299 89.4366 58.3612 89.4366H59.0529V92.7218C59.0529 94.0581 59.7328 94.7952 60.9648 94.7952C61.5791 94.7952 62.1378 94.5714 62.4761 94.1658C62.6074 94.0076 62.4711 93.772 62.2691 93.8107L62.2674 93.8141Z" fill="#240642"/>
<path d="M50.1533 93.5735C49.7864 93.6392 49.5373 93.3514 49.5373 92.9003V90.7259C49.5373 89.1759 48.5545 88.3428 46.6459 88.3428C44.936 88.3428 43.7697 88.9991 43.7663 89.9921C43.7663 90.1705 43.832 90.3455 43.9313 90.5138C44.0895 90.7562 44.3756 90.9194 44.7038 90.9194C45.2019 90.9194 45.6075 90.5424 45.6075 90.0796C45.6075 89.6033 45.2036 89.3627 45.0824 89.3172C45.1699 89.2432 45.5436 88.9554 46.0956 88.9554C46.9741 88.9554 47.4454 89.6219 47.4454 90.6586V91.0709C46.7856 91.0709 46.0468 91.1365 45.5267 91.2644C44.2544 91.5421 43.5829 92.2675 43.5829 93.1696C43.5829 94.1878 44.3924 94.8223 45.6765 94.8223C46.5668 94.8223 47.3074 94.5109 47.654 93.9892C47.8728 94.4285 48.3592 94.7062 48.9836 94.7062C49.7914 94.7062 50.2156 94.2837 50.3485 93.7839C50.3839 93.6408 50.2745 93.5516 50.1533 93.5752V93.5735ZM47.4437 93.0854C47.3747 93.5702 47.0398 93.8596 46.5534 93.8596C46.0215 93.8596 45.6631 93.5012 45.6631 92.934C45.6631 92.4947 45.86 92.111 46.2875 91.9259C46.5769 91.798 47.0263 91.729 47.4437 91.7172V93.0854Z" fill="#240642"/>
<path d="M69.4892 93.5735C69.1223 93.6392 68.8733 93.3514 68.8733 92.9003V90.7259C68.8733 89.1759 67.8904 88.3428 65.9819 88.3428C64.2719 88.3428 63.1056 88.9991 63.1023 89.9921C63.1023 90.1705 63.1679 90.3455 63.2672 90.5138C63.4254 90.7562 63.7115 90.9194 64.0397 90.9194C64.5379 90.9194 64.9435 90.5424 64.9435 90.0796C64.9435 89.6033 64.5395 89.3627 64.4184 89.3172C64.5059 89.2432 64.8795 88.9554 65.4315 88.9554C66.3101 88.9554 66.7813 89.6219 66.7813 90.6586V91.0709C66.1216 91.0709 65.3827 91.1365 64.8627 91.2644C63.5903 91.5421 62.9188 92.2675 62.9188 93.1696C62.9188 94.1878 63.7283 94.8223 65.0125 94.8223C65.9028 94.8223 66.6433 94.5109 66.99 93.9892C67.2088 94.4285 67.6952 94.7062 68.3195 94.7062C69.1274 94.7062 69.5515 94.2837 69.6845 93.7839C69.7198 93.6408 69.6104 93.5516 69.4892 93.5752V93.5735ZM66.7796 93.0854C66.7106 93.5702 66.3757 93.8596 65.8893 93.8596C65.3575 93.8596 64.999 93.5012 64.999 92.934C64.999 92.4947 65.1959 92.111 65.6234 91.9259C65.9129 91.798 66.3622 91.729 66.7796 91.7172V93.0854Z" fill="#240642"/>
<path d="M43.9095 86.5266H42.861C42.6354 86.5266 42.4991 86.7774 42.6237 86.9658L42.8037 87.2385C42.9569 87.4724 42.9872 87.7653 42.8845 88.0244L41.0029 92.7587C40.9171 92.9859 40.8279 93.1424 40.7892 93.1811C40.7673 93.2013 40.732 93.2081 40.705 93.1879L40.6057 93.1088C40.5738 93.0852 40.5754 93.0516 40.6057 93.0179C40.6613 92.9438 40.6949 92.8563 40.7151 92.7755C40.7387 92.6796 40.7303 92.5769 40.6949 92.4844L39.1011 88.2719C38.9951 87.9942 39.0002 87.6862 39.1129 87.4118L39.2829 86.9961C39.3738 86.7723 39.2105 86.5266 38.9682 86.5266H36.3999C36.0532 86.5266 35.8732 86.9389 36.1088 87.193L36.272 87.3698C36.5716 87.6963 36.8089 88.0733 36.9722 88.4856L39.261 94.4653C39.3216 94.6167 39.468 94.716 39.6296 94.716H40.8969C41.0602 94.716 41.2066 94.6167 41.2655 94.4653L44.2292 86.9911C44.3184 86.7673 44.1535 86.5249 43.9128 86.5249L43.9095 86.5266Z" fill="#240642"/>
<path d="M8.81067 49.0463C10.2379 26.1037 29.9945 8.14277 52.8731 8.17979C66.8268 8.08049 80.3682 14.831 88.6738 26.0414C90.3164 28.2512 91.752 30.6074 92.9553 33.073C95.3452 38.0092 96.806 43.3796 97.1628 48.7989C97.1729 49.4283 96.291 49.5545 96.158 48.9066C93.5073 30.3583 79.1177 15.1019 60.6082 11.8824C42.245 8.49283 23.4746 17.7207 14.7129 34.2039C12.2137 38.8153 10.5761 43.9013 9.81542 49.1506C9.77503 49.4266 9.51921 49.6185 9.2432 49.5798C8.98234 49.5427 8.79553 49.3071 8.81067 49.0496V49.0463Z" fill="#AC55FF"/>
<path d="M28.61 83.8164H29.445V81.3654H30.5852C32.4167 81.3654 33.0901 80.5125 33.0901 79.4441C33.0901 78.3757 32.4167 77.5318 30.6031 77.5318H28.61V83.8164ZM29.445 80.6831V78.2321H30.5942C31.7972 78.2321 32.2102 78.7528 32.2102 79.4621C32.2102 80.1713 31.7972 80.6831 30.5942 80.6831H29.445ZM36.0215 83.9421C37.5208 83.9421 38.4187 82.9366 38.4187 81.4642C38.4187 79.9828 37.5208 78.9772 36.0215 78.9772C34.5132 78.9772 33.6154 79.9828 33.6154 81.4642C33.6154 82.9366 34.5132 83.9421 36.0215 83.9421ZM36.0215 83.2867C35.0609 83.2867 34.4414 82.6493 34.4414 81.4642C34.4414 80.2791 35.0609 79.6326 36.0215 79.6326C36.9822 79.6326 37.5927 80.2791 37.5927 81.4642C37.5927 82.6493 36.9822 83.2867 36.0215 83.2867ZM45.0547 79.1029L43.9414 82.9366L42.8281 79.1029H42.0111L40.8979 82.8917L39.7936 79.1029H38.9406L40.431 83.8164H41.2749L42.3702 80.0636L43.4835 83.8164H44.3185L45.8178 79.1029H45.0547ZM48.5819 78.9772C47.2442 78.9772 46.3374 79.9199 46.3374 81.4372C46.3374 82.9096 47.1814 83.9421 48.6358 83.9421C49.8478 83.9421 50.5571 83.2149 50.7277 82.335L49.9915 82.2093C49.8119 82.9455 49.3271 83.2867 48.6358 83.2867C47.5943 83.2867 47.1454 82.5236 47.1275 81.6078H50.7636C50.8534 80.0546 50.0184 78.9772 48.5819 78.9772ZM47.1275 81.0153C47.1724 80.3599 47.6303 79.6237 48.5819 79.6237C49.5516 79.6237 49.9556 80.3868 49.9556 81.0153H47.1275ZM51.8682 83.8164H52.6582V81.2397C52.6582 80.0995 53.17 79.6865 53.9152 79.6865C54.1037 79.6865 54.2922 79.7134 54.4897 79.7673V79.067C54.3461 79.0132 54.1935 78.9772 53.987 78.9772C53.4124 78.9772 52.9276 79.2556 52.6582 79.884V79.1029H51.8682V83.8164ZM57.104 78.9772C55.7663 78.9772 54.8595 79.9199 54.8595 81.4372C54.8595 82.9096 55.7035 83.9421 57.1579 83.9421C58.3699 83.9421 59.0792 83.2149 59.2498 82.335L58.5136 82.2093C58.334 82.9455 57.8492 83.2867 57.1579 83.2867C56.1165 83.2867 55.6676 82.5236 55.6496 81.6078H59.2857C59.3755 80.0546 58.5405 78.9772 57.104 78.9772ZM55.6496 81.0153C55.6945 80.3599 56.1524 79.6237 57.104 79.6237C58.0737 79.6237 58.4777 80.3868 58.4777 81.0153H55.6496ZM63.8019 77.5318V79.9199C63.5505 79.3364 62.9849 78.9772 62.2218 78.9772C60.9739 78.9772 60.076 79.9828 60.076 81.4642C60.076 82.9366 60.9559 83.9421 62.2218 83.9421C62.9939 83.9421 63.5595 83.565 63.8019 82.9545V83.8164H64.574V77.5318H63.8019ZM62.3744 83.2777C61.5664 83.2777 60.911 82.6942 60.911 81.4642C60.911 80.2162 61.5664 79.6326 62.3744 79.6326C63.1824 79.6326 63.8468 80.2162 63.8468 81.4642C63.8468 82.6942 63.1824 83.2777 62.3744 83.2777ZM70.671 78.9772C69.9078 78.9772 69.2794 79.3453 68.9831 79.9289V77.5318H68.211V83.8164H68.8933L68.9831 83.0263C69.3153 83.6009 69.8899 83.9421 70.653 83.9421C71.9638 83.9421 72.7269 82.8917 72.7269 81.4552C72.7269 79.9828 71.9189 78.9772 70.671 78.9772ZM70.4375 83.2777C69.6295 83.2777 68.9651 82.6942 68.9651 81.4552C68.9651 80.2162 69.6205 79.6326 70.4375 79.6326C71.2456 79.6326 71.901 80.2162 71.901 81.4552C71.901 82.6942 71.2456 83.2777 70.4375 83.2777ZM77.1648 79.1029L75.5847 82.8109L73.9776 79.1029H73.0978L75.1448 83.7087L74.9921 83.996C74.642 84.6873 74.4804 84.9297 73.9776 84.9297C73.7891 84.9297 73.5287 84.8668 73.3043 84.7771V85.4863C73.5377 85.5851 73.816 85.6479 74.0315 85.6479C74.8664 85.6479 75.2705 85.226 75.7912 84.0409L77.9639 79.1029H77.1648Z" fill="black"/>
<path d="M39.3778 44.7664V48.9214L37.9326 47.44C37.0414 48.4276 35.7949 48.9214 34.1931 48.9214C33.0008 48.9214 31.9651 48.6504 31.0859 48.1084C30.2067 47.5544 29.5263 46.7776 29.0445 45.778C28.5748 44.7664 28.34 43.5801 28.34 42.2192C28.34 40.8342 28.5809 39.6299 29.0626 38.6062C29.5564 37.5704 30.2489 36.7695 31.1401 36.2035C32.0313 35.6375 33.0731 35.3544 34.2654 35.3544C35.5179 35.3544 36.5717 35.6375 37.4268 36.2035L38.7275 35.4448V39.9611L37.481 38.2449C36.5416 36.9321 35.5299 36.2758 34.446 36.2758C33.7716 36.2758 33.1815 36.5106 32.6756 36.9803C32.1819 37.45 31.8025 38.1244 31.5375 39.0036C31.2726 39.8707 31.1401 40.9004 31.1401 42.0927C31.1401 43.9233 31.4532 45.3505 32.0795 46.3742C32.7057 47.3979 33.5729 47.9097 34.6809 47.9097C35.1987 47.9097 35.6745 47.8013 36.108 47.5846C36.5416 47.3678 36.9029 47.0607 37.1919 46.6632V44.5135L35.4035 42.7431H40.263L39.3778 44.7664ZM43.1311 46.7536V37.3235L41.704 35.6254H46.8526C48.2857 35.6254 49.5142 35.8904 50.5379 36.4203C51.5736 36.9502 52.3624 37.721 52.9044 38.7326C53.4584 39.7322 53.7354 40.9305 53.7354 42.3276C53.7354 44.3991 53.1453 45.9828 51.965 47.0787C50.7847 48.1747 49.0746 48.7227 46.8345 48.7227H42.2279L43.1311 46.7536ZM45.6783 36.6371V47.711H46.8345C48.1713 47.711 49.189 47.2413 49.8875 46.3019C50.5981 45.3625 50.9533 44.0137 50.9533 42.2553C50.9533 40.4729 50.592 39.0939 49.8694 38.1184C49.1589 37.1308 48.1532 36.6371 46.8526 36.6371H45.6783ZM56.4507 46.7536V37.3235L55.0235 35.6254H60.6418C62.3158 35.6254 63.6045 35.9566 64.5077 36.619C65.423 37.2814 65.8807 38.2148 65.8807 39.4191C65.8807 40.792 65.2845 41.8579 64.0922 42.6166C62.8999 43.3754 61.2018 43.7608 58.9979 43.7728V47.0245L60.425 48.7227H55.5474L56.4507 46.7536ZM58.9979 36.619V42.8334C60.431 42.7973 61.4908 42.5082 62.1773 41.9663C62.8758 41.4243 63.2251 40.6295 63.2251 39.5817C63.2251 38.6303 62.9662 37.9016 62.4483 37.3958C61.9304 36.8779 61.1898 36.619 60.2263 36.619H58.9979ZM68.5529 46.7536V37.3235L67.1258 35.6254H72.6537C74.2916 35.6254 75.5381 35.9024 76.3932 36.4564C77.2483 36.9984 77.6758 37.7932 77.6758 38.841C77.6758 39.7684 77.3506 40.5512 76.7003 41.1895C76.05 41.8157 75.1166 42.2674 73.9002 42.5444C74.6228 42.725 75.243 43.0984 75.7609 43.6644C76.2908 44.2305 76.7304 45.0012 77.0797 45.9768C77.2964 46.5669 77.5072 46.9703 77.7119 47.1871C77.9167 47.4039 78.1937 47.5123 78.5429 47.5123C78.4948 47.9579 78.3201 48.2951 78.0191 48.5239C77.718 48.7528 77.3145 48.8672 76.8087 48.8672C76.1704 48.8672 75.6706 48.6564 75.3093 48.2349C74.948 47.8013 74.6288 47.0607 74.3518 46.0129C74.0628 44.8688 73.6654 44.0558 73.1595 43.5741C72.6657 43.0923 71.9793 42.8515 71.1001 42.8515V47.0245L72.5272 48.7227H67.6497L68.5529 46.7536ZM71.1001 36.619V41.876H71.7324C72.7922 41.876 73.6232 41.6291 74.2254 41.1353C74.8275 40.6295 75.1286 39.9309 75.1286 39.0397C75.1286 38.2569 74.8878 37.6608 74.406 37.2513C73.9363 36.8298 73.2499 36.619 72.3466 36.619H71.1001Z" fill="white"/>
</g>
<defs>
<clipPath id="clip0_1659_49020">
<rect width="106" height="106" fill="white" transform="translate(0 0.606445)"/>
</clipPath>
</defs>
</svg>
