<svg width="40" height="41" viewBox="0 0 40 41" fill="none" xmlns="http://www.w3.org/2000/svg">
<circle cx="20" cy="20.7266" r="20" fill="#AC55FF"/>
<path d="M17.0318 26.7299C23.0699 26.7299 26.3718 21.7276 26.3718 17.3899C26.3718 17.2478 26.3689 17.1064 26.3625 16.9656C27.005 16.5007 27.5595 15.9251 28 15.2657C27.4118 15.5272 26.7789 15.7032 26.1149 15.7825C26.7926 15.3761 27.3129 14.7333 27.5584 13.9669C26.914 14.3492 26.209 14.6187 25.4739 14.7637C24.8749 14.1256 24.0221 13.7266 23.0778 13.7266C21.265 13.7266 19.7949 15.1967 19.7949 17.0088C19.7949 17.2664 19.8237 17.517 19.8801 17.7573C17.1518 17.62 14.7325 16.3137 13.1134 14.3275C12.8218 14.8284 12.6684 15.3978 12.6689 15.9774C12.6689 17.1163 13.2485 18.1217 14.1297 18.7099C13.6085 18.694 13.0986 18.5532 12.6431 18.2993C12.6426 18.3131 12.6426 18.3266 12.6426 18.3413C12.6426 19.931 13.7741 21.2584 15.2761 21.5592C14.994 21.636 14.7029 21.6749 14.4105 21.6747C14.2035 21.6746 13.9969 21.6547 13.7936 21.6155C14.2115 22.9198 15.4234 23.8689 16.8601 23.8954C15.7366 24.7761 14.3213 25.3006 12.783 25.3006C12.5184 25.3006 12.257 25.2855 12 25.2552C13.4528 26.1864 15.1779 26.7297 17.032 26.7297" fill="white"/>
</svg>
