<svg width="171" height="50" viewBox="0 0 171 50" fill="none" xmlns="http://www.w3.org/2000/svg">
<path d="M66.3562 19.0865C65.6672 16.0802 62.3791 13.6064 58.2144 13.6064C54.3 13.5438 50.6675 16.6126 50.7614 20.3391C50.7614 23.6897 52.609 25.8191 55.8344 26.5394L56.6799 26.6959C58.5275 27.0717 59.6862 27.3222 60.1558 27.4787C61.5024 27.8859 62.2853 28.9819 62.2853 30.0153C62.2853 31.7689 60.6568 32.9589 58.3083 32.9589C57.2123 32.9589 56.1789 32.7084 55.2395 32.176C54.3313 31.6436 53.799 30.9234 53.6425 30.0153L49.9473 30.579C50.1978 34.4307 54.0808 36.6226 58.1517 36.6226C62.3479 36.6226 66.137 34.2114 66.137 29.984C66.137 26.5081 63.9449 24.0968 60.1558 23.4392L59.4043 23.314C58.9032 23.22 57.7446 23.0321 56.8991 22.8129C55.3647 22.531 54.5505 21.529 54.5505 20.3704C54.5492 20.16 54.5701 19.95 54.6131 19.7441C55.0203 18.241 56.5234 17.2702 58.3083 17.2702C60.3125 17.2702 62.1913 18.3349 62.6611 20.0572L66.3562 19.0865Z" fill="black"/>
<path d="M83.8151 28.4805C83.8151 25.5996 83.1262 23.5328 81.7484 22.2802C80.4019 21.0277 79.0397 20.4014 76.9102 20.4014C75.1566 20.4014 74.1389 21.2234 73.0429 22.5072V14.0444H69.3164V36.2778H73.0429V28.8892C73.1368 27.2921 73.5752 26.1022 74.4207 25.3193C75.2662 24.5365 75.8456 24.1607 76.9102 24.1607C78.9144 24.1607 80.12 25.6951 80.12 28.6699V36.2794H83.8151V28.4805Z" fill="black"/>
<path d="M94.2045 36.6857C98.3691 36.7796 101.877 33.0845 101.814 28.7944C101.814 24.379 98.4319 20.7778 94.2045 20.7778C90.0399 20.6838 86.4386 24.5042 86.5326 28.7944C86.4386 32.9608 90.1027 36.7796 94.2045 36.6857ZM94.2045 24.2851C96.5848 24.2851 98.1501 26.2265 98.1501 28.8257C98.1501 31.4248 96.6162 33.241 94.2045 33.241C91.7937 33.241 90.1647 31.2056 90.1647 28.8257C90.1647 26.2892 91.7946 24.2851 94.2045 24.2851Z" fill="black"/>
<path d="M112.631 21.2473C110.532 21.2473 109.091 21.811 108.277 23.0323V21.2473H104.613L104.644 36.2783H108.277V28.6376C108.433 26.1637 110.004 24.3161 112.228 24.3161H113.349V21.2473H112.631Z" fill="black"/>
<path d="M124.514 24.3162V21.2473H121.499V16.5266L117.773 17.1529V21.2473H115.683V24.3162H117.773V31.8159C117.773 34.7126 119.621 36.247 121.844 36.247L124.475 36.2783V32.9276L123.332 32.8963C122.329 32.8963 121.499 32.3484 121.499 31.2523V24.3162H124.514Z" fill="black"/>
<path d="M141.355 25.4452C140.885 24.036 140.009 22.9087 138.725 22.0632C137.441 21.2176 136 20.7793 134.372 20.7793C130.207 20.6853 126.481 24.5057 126.575 28.7958C126.481 33.1486 130.207 36.7497 134.372 36.6558C137.503 36.6558 140.04 35.0901 141.073 32.5536L137.91 31.2697C137.441 32.4283 136.282 33.4617 134.372 33.4617C131.773 33.4617 130.207 31.4575 130.207 28.7958C130.207 26.1341 131.773 24.0673 134.372 24.0673C136.376 24.0673 137.503 25.132 138.099 26.6351L141.355 25.4452Z" fill="black"/>
<path d="M169.032 24.3162V21.2473H166.018V16.5266L162.292 17.1529V21.2473H160.202V24.3162H162.292V31.8159C162.292 34.7126 164.139 36.247 166.362 36.247L168.993 36.2783V32.9276L167.85 32.8963C166.848 32.8963 166.018 32.3484 166.018 31.2523V24.3162H169.032Z" fill="black"/>
<path fill-rule="evenodd" clip-rule="evenodd" d="M143.905 21.2588L147.506 21.2513L147.524 30.0511C147.529 32.3258 148.811 33.4304 150.805 33.4261C152.799 33.4217 154.076 32.2819 154.072 30.0069L154.052 21.2388L157.654 21.231L157.673 30.2406C157.677 32.336 157.026 33.9533 155.719 35.0639C154.412 36.1743 152.776 36.7145 150.783 36.718C148.791 36.7215 147.151 36.1868 145.869 35.0826C144.587 33.9783 143.929 32.4209 143.925 30.3572L143.905 21.2588Z" fill="black"/>
<path d="M41.0221 15.2366C41.0221 9.84442 36.651 5.47291 31.2588 5.47291H11.7324C10.45 5.47116 9.1799 5.72286 7.9951 6.21355C6.81029 6.70425 5.73412 7.42425 4.82844 8.3322C1.01593 12.1454 1.01593 18.3294 4.82844 22.1406L8.3055 25.6178C4.60322 27.0056 1.96777 30.5765 1.96777 34.7635C1.96777 40.1556 6.33899 44.5272 11.7311 44.5272H31.2588C32.5412 44.5289 33.8112 44.2771 34.996 43.7863C36.1807 43.2956 37.2568 42.5755 38.1624 41.6675C41.9753 37.8543 41.9753 31.6703 38.1623 27.8591L34.6853 24.3819C38.3868 22.9944 41.0221 19.4232 41.0221 15.2366ZM7.50697 38.9896C6.68661 38.169 6.12293 37.1271 5.88477 35.9915C5.64659 34.8558 5.74423 33.6753 6.16576 32.5942C6.58728 31.5131 7.31446 30.5781 8.25849 29.9034C9.20253 29.2287 10.3225 28.8435 11.4819 28.7948L23.4263 40.7405H11.7308C10.946 40.7423 10.1686 40.5885 9.44358 40.288C8.71858 39.9874 8.06034 39.5462 7.50697 38.9896ZM35.4838 30.539C36.6044 31.6596 37.2339 33.1795 37.2339 34.7643C37.2339 36.3491 36.6044 37.869 35.4838 38.9896C34.3633 40.1102 32.8435 40.7398 31.2588 40.7398C29.6741 40.7398 28.1543 40.1102 27.0338 38.9896L7.50697 19.4619C6.39333 18.3397 5.76972 16.8221 5.77269 15.241C5.77568 13.6601 6.405 12.1447 7.52285 11.0268C8.64069 9.90885 10.156 9.27949 11.7368 9.2765C13.3177 9.27354 14.8354 9.89718 15.9574 11.0109L35.4838 30.539ZM35.4838 19.4619C34.4268 20.5243 33.0069 21.1473 31.5093 21.2057L19.5644 9.26079H31.26C32.4416 9.26111 33.5967 9.6118 34.5791 10.2685C35.5615 10.9253 36.3271 11.8585 36.7792 12.9504C37.2312 14.0422 37.3495 15.2435 37.1189 16.4025C36.8883 17.5616 36.3193 18.6262 35.4838 19.4619Z" fill="#58B1E4"/>
</svg>
