<svg width="201" height="201" viewBox="0 0 201 201" fill="none" xmlns="http://www.w3.org/2000/svg">
<path fill-rule="evenodd" clip-rule="evenodd" d="M176.628 41.5798C179.141 42.5282 181.653 43.4767 181.673 43.4968C183.086 44.0215 183.086 46.0798 181.592 46.6044L173.319 49.7524C172.471 50.0752 171.543 49.6716 171.22 48.8241C170.897 47.9766 171.301 47.0484 172.149 46.7255C172.149 46.7255 174.045 45.999 175.902 45.2726L170.211 43.5776C169.435 43.3466 168.657 43.1156 167.877 42.8842C165.251 42.1046 162.606 41.3194 159.96 40.5103C159.194 40.2682 158.669 39.6628 158.427 38.9767C158.427 38.9767 156.126 32.6405 154.028 26.8289L150.113 39.2592C149.79 40.2682 149.023 40.9946 148.055 41.3175C145.35 42.281 141.59 43.5507 138.681 44.533C138.421 44.6205 138.169 44.7058 137.925 44.7883C137.808 44.8273 137.683 44.8704 137.553 44.9151C137.28 45.0091 136.988 45.1098 136.714 45.1919C136.896 45.2524 137.087 45.323 137.279 45.3937C137.471 45.4643 137.662 45.5349 137.844 45.5955L137.844 45.5955C141.275 46.8466 144.705 48.0977 148.095 49.3891C148.862 49.6716 149.427 50.3174 149.629 51.0438C149.629 51.0438 152.333 60.1244 154.068 66.0571L159.234 51.4071C159.395 50.8824 159.839 50.4788 160.324 50.3577L165.489 48.9048C167.588 48.3802 168.436 51.4071 166.377 52.0528L162.059 53.2635L155.723 72.8373C155.198 74.492 152.777 74.5727 152.171 72.918C152.145 72.918 149.9 67.0279 147.839 61.6206C146.695 58.6184 145.607 55.7651 144.987 54.1514C143.057 53.5851 141.142 52.9858 139.223 52.3852C138.134 52.0443 137.043 51.7028 135.947 51.3667C132.517 50.277 129.127 49.1874 125.737 48.0977C122.831 47.1694 122.75 43.0529 125.615 42.0036L130.822 40.1875C135.059 38.7346 140.144 36.9992 144.544 35.5463C145.556 32.7679 147.667 26.8989 149.259 22.4751C150.395 19.3161 151.267 16.894 151.283 16.8604C151.808 15.4075 153.463 14.6407 154.916 15.1653C155.763 15.4882 156.409 16.1743 156.651 16.9815L162.745 36.3131C165.691 37.4027 168.637 38.5327 171.583 39.6626L171.584 39.6628C171.604 39.683 174.116 40.6314 176.628 41.5798ZM111.167 92.3707L160.727 105.85C166.741 107.505 166.983 115.94 161.171 117.958L160.767 118.079L113.629 133.899C111.666 139.245 106.872 152.403 102.697 163.863C98.803 174.551 95.4469 183.763 95.4274 183.782C94.701 185.76 92.4813 186.809 90.4634 186.083C89.3333 185.679 88.4858 184.751 88.1226 183.701C88.1226 183.701 72.0196 136.24 70.8493 132.85C66.1735 131.21 53.4475 126.728 41.9172 122.668C30.4577 118.632 20.1794 115.012 20.1593 115.012C17.2535 114.003 17.2938 109.846 20.1996 108.837C20.1996 108.837 62.7372 94.429 71.3739 91.5232C72.1578 89.2429 72.8997 86.9487 73.6407 84.6569C74.1589 83.0547 74.6766 81.4538 75.208 79.8596C76.6173 75.4866 79.2293 67.4416 81.8197 59.4633C84.2735 51.9055 86.7079 44.4074 88.0822 40.1471C88.6473 38.0485 90.867 36.7974 92.9252 37.4834C94.2167 37.887 95.1449 38.9767 95.4274 40.2278L101.723 67.4293C102.127 69.4068 99.3826 70.214 98.6157 68.3979C98.6157 68.3979 95.0239 59.6401 92.0373 52.2949C91.2925 54.3961 90.525 56.5582 89.7446 58.7566C85.3236 71.2104 80.4887 84.8302 77.0241 95.1554C76.7012 96.1644 75.894 96.8908 74.9658 97.2137C74.9658 97.2137 44.2128 107.626 31.5807 111.904L75.2483 126.07C76.4591 126.473 77.3469 127.402 77.7102 128.491C77.7102 128.536 80.3345 136.32 83.564 145.899C86.2341 153.819 89.3178 162.966 91.6741 169.98L104.71 128.168C105.154 126.716 106.243 125.586 107.575 125.061L107.817 124.94L141.92 111.501L108.826 96.2047C108.221 95.9626 107.737 95.5186 107.535 94.9133L102.732 80.3439C102.127 78.3664 104.952 77.2767 105.8 79.2139L111.167 92.3707Z" fill="#240642"/>
</svg>
