<?xml version="1.0" encoding="utf-8"?>
<!-- Generator: Adobe Illustrator 26.2.1, SVG Export Plug-In . SVG Version: 6.00 Build 0)  -->
<svg version="1.1" id="Layer_1" xmlns="http://www.w3.org/2000/svg" xmlns:xlink="http://www.w3.org/1999/xlink" x="0px" y="0px"
	 viewBox="0 0 500 105.7" style="enable-background:new 0 0 500 105.7;" xml:space="preserve">
<path d="M5,75.2l43.1-26.8h22.4c0.7,0,1.3,0.5,1.3,1.3c0,0.6-0.3,0.9-0.6,1.1L50,63.5c-1.4,0.8-1.9,2.5-1.9,3.7l0,8H75V28.7
	c0-0.9-0.7-1.7-1.7-1.7H47.6l-43,26.7v21.5H5z"/>
<path d="M358.3,75.2h38.8V64.8h-26.5V56h21.3V45.6h-21.3v-8.1h26.5V27h-38.8V75.2z"/>
<path d="M114.8,27L96.3,75.2H109l3.2-9h20.6l3.2,9h13.1L130.4,27H114.8z M115.9,55.9l6.7-18.9l6.6,18.9H115.9z"/>
<path d="M201.8,37.5h15.5v37.7h12.3V37.5H245V27h-43.3V37.5z"/>
<path d="M183.9,56.6c0,6.3-3.8,8.8-10.4,8.8c-6.4,0-10.5-2.6-10.5-8.8V26.9h-12.3V58c0,13.9,12.4,18.2,22.8,18.2
	c10.3,0,22.7-4.3,22.7-18.2V26.9h-12.3L183.9,56.6L183.9,56.6z"/>
<path d="M498.4,27h-14.6l-17.5,19.6V27H454l0.1,48.2h12.2V56.9l16.6,18.3h15.5L476,51.4L498.4,27z"/>
<path d="M329.4,27h-22.5v48.2h22.5c17.3,0,22-6.4,22-24.4C351.5,33.8,346.9,27,329.4,27z M328.9,64.8h-9.8V37.5h9.8
	c7.7,0,10,2.1,10,13.3C338.9,61,336.4,64.8,328.9,64.8z"/>
<path d="M434.2,46.8L423,45.6c-6.5-0.7-8.2-2.4-8.2-4.6c0-2.5,3.4-4.7,9.9-4.7c6.3,0,9.6,2.4,10.2,5.9h12
	c-0.6-10.2-9.1-16.5-21.6-16.5c-14.8,0-22.2,5.9-22.2,16.3c0,8.5,4.9,12.5,15.2,13.6l11.4,1.2c4.3,0.5,6.3,2.2,6.3,4.3
	c0,2.5-2.9,4.7-9.9,4.7c-8.1,0-11.3-2-11.9-6.1h-11.8c0.5,11.1,7.8,16.7,23.2,16.7c14.1,0,22-6.2,22-15.5
	C447.7,52.7,443,47.9,434.2,46.8z"/>
<path d="M273.6,25.7C256.1,25.7,247,36.5,247,51c0,14.6,9.1,25.4,26.6,25.4c17.6,0,26.6-10.8,26.6-25.4
	C300.3,36.5,291.2,25.7,273.6,25.7z M273.6,65.5c-9.1,0-14.1-5.5-14.1-14.6c0-8.8,5-14.4,14.1-14.4c9.2,0,14.1,5.6,14.1,14.4
	C287.7,60,282.8,65.5,273.6,65.5z"/>
</svg>
