<svg width="40" height="41" viewBox="0 0 40 41" fill="none" xmlns="http://www.w3.org/2000/svg">
<circle cx="20" cy="20.7266" r="20" fill="#AC55FF"/>
<g clip-path="url(#clip0_2141_1010)">
<path d="M15.32 15.0592C15.32 15.9799 14.58 16.7259 13.6667 16.7259C12.7533 16.7259 12.0133 15.9799 12.0133 15.0592C12.0133 14.1392 12.7533 13.3926 13.6667 13.3926C14.58 13.3926 15.32 14.1392 15.32 15.0592ZM15.3333 18.0592H12V28.7259H15.3333V18.0592ZM20.6547 18.0592H17.3427V28.7259H20.6553V23.1266C20.6553 20.0132 24.6747 19.7586 24.6747 23.1266V28.7259H28V21.9719C28 16.7186 22.052 16.9099 20.6547 19.4959V18.0592Z" fill="white"/>
</g>
<defs>
<clipPath id="clip0_2141_1010">
<rect width="16" height="16" fill="white" transform="translate(12 12.7266)"/>
</clipPath>
</defs>
</svg>
