<svg width="201" height="201" viewBox="0 0 201 201" fill="none" xmlns="http://www.w3.org/2000/svg">
<path d="M43.2612 56.2652C49.3952 59.1022 56.2194 60.6357 63.0435 60.8658C70.021 61.0958 76.9601 60.2524 83.5926 57.7604C90.3401 55.2684 96.3974 50.1312 99.0428 43.307C100.576 39.0515 101.535 34.6427 100.461 30.0038C99.3111 24.5215 94.0205 19.6526 88.1165 21.3394C80.6789 24.0614 80.2955 34.0293 85.1644 39.2432C86.0846 40.24 87.8481 39.4733 87.7331 38.0931C87.6564 36.9046 87.6564 35.6778 87.8098 34.5277C88.0781 32.6875 88.6149 29.4671 90.7234 29.2754L90.3784 29.3904C90.1484 29.5054 90.225 29.4671 90.3401 29.5821C93.3688 31.6523 92.0653 37.3263 90.8385 40.8151C89.5733 43.9588 87.0813 46.6424 84.321 48.5977C81.2923 50.6296 77.8036 51.8947 74.3148 52.9298C64.5387 55.6135 54.1491 55.8435 44.2196 53.5816C43.5679 53.4282 42.8395 53.7349 42.5327 54.3867C42.226 55.0768 42.5328 55.9202 43.2612 56.2652Z" fill="#240642"/>
<path d="M161.188 116.877C160.69 92.9929 160.268 66.6548 159.54 42.8086C159.617 37.2113 152.064 35.7928 150.109 40.8918C145.623 53.1599 131.975 59.0256 119.324 58.2971C112.538 57.8371 105.024 56.1886 100.001 51.3963C98.6978 50.0928 96.7425 51.8947 97.816 53.2749C103.758 60.7124 115.566 63.8178 124.729 63.8945C134.275 64.0095 144.09 60.4824 150.914 53.7733C150.339 73.5556 150.032 97.3634 149.572 116.916C148.844 132.404 112.691 161.234 100.155 170.78C99.9629 170.934 99.0811 171.586 98.7361 171.854C84.3594 161.963 47.2867 135.241 44.6797 118.488C44.5264 117.452 43.8363 71.1787 43.7596 68.38C43.6446 66.5014 40.9609 66.5014 40.8459 68.38L40.0792 113.082C40.0792 113.964 40.0025 116.417 40.0025 117.261C39.8875 124.008 43.7596 130.027 47.44 135.203C51.9639 141.375 57.2162 146.896 62.6985 152.225C72.2446 161.388 82.4042 169.784 92.9087 177.758L94.0205 178.601L94.1739 178.716L94.2506 178.793C94.9023 179.253 95.5924 179.598 96.3208 179.867C98.8895 180.787 101.88 180.173 104.027 178.525L105.177 177.72C107.439 176.148 109.892 174.461 112.116 172.812C126.684 162.116 156.09 139.995 160.575 122.475C161.035 120.788 161.227 118.718 161.188 116.877ZM98.9661 171.931L98.8895 171.854C98.9278 171.854 99.0045 171.892 99.0428 171.931C99.0428 171.969 99.0045 171.931 98.9661 171.931Z" fill="#240642"/>
<path d="M69.2543 110.13L84.7428 130.986C87.0047 134.053 91.6436 133.593 93.4071 130.257L128.601 75.3575C129.56 73.7856 127.451 72.3288 126.263 73.6323L87.6948 119.178L71.2862 108.06C69.906 107.14 68.2958 108.788 69.2543 110.13Z" fill="#240642"/>
</svg>
