<svg width="85" height="86" viewBox="0 0 85 86" fill="none" xmlns="http://www.w3.org/2000/svg">
<path d="M59.2534 70.1477C48.4351 70.6985 37.3804 71.0657 26.5358 71.3542C25.3017 71.2755 24.3826 71.6689 22.8859 71.1444C21.2317 70.5936 19.9975 68.9937 19.84 67.2365L19.7612 64.1154L19.6299 58.1879C19.5511 47.1723 19.1835 27.3966 19.2623 16.5908C19.2886 16.1711 19.2623 14.7811 19.2623 14.3614C19.026 11.5813 21.2842 8.74871 24.1726 8.6438C25.5642 8.6438 28.1113 8.6438 29.5555 8.6438C33.3104 8.6438 43.4986 8.72248 47.3848 8.77494C47.6211 8.77494 48.2775 8.77494 48.5139 8.77494C51.1922 8.77494 53.5554 11.1092 53.5029 13.7844V14.545L53.4504 20.4725L53.3979 23.2526C53.3979 23.41 53.5292 23.6198 53.713 23.646C53.9756 23.646 55.4198 23.6985 55.8136 23.6985C57.1528 23.7509 59.6998 23.751 61.0127 23.8034C63.1134 23.6985 65.2928 25.3508 65.6604 27.4491C65.8967 28.944 65.6079 32.17 65.6604 33.8224C65.4241 45.7035 65.0302 57.5847 64.4788 69.4658C64.4788 69.833 64.1637 70.0953 63.7961 70.0953C63.4547 70.0953 63.1922 69.8068 63.1659 69.4658C62.772 61.5451 62.562 53.6243 62.2731 45.7035C62.0368 39.9597 62.0631 34.0584 61.853 28.3146C61.7217 27.5802 60.1987 27.9736 58.8071 27.9212C57.2578 27.9474 54.9996 28.0261 53.4504 28.0261C51.1397 27.9474 49.0915 26.0065 48.9077 23.6723C48.8027 21.2331 48.8027 16.2236 48.7502 13.7844C48.7239 13.732 48.6452 13.6533 48.5664 13.6533H47.4373L24.5664 13.8107C24.5664 28.8654 24.3564 51.8933 23.9888 66.9217C24.0938 67.9446 25.1704 67.4463 26.6146 67.6299C28.4789 67.6823 33.5992 67.8135 35.5423 67.8659C43.4723 68.2069 51.4023 68.3905 59.3322 68.8364C60.12 68.8364 60.1462 70.1477 59.3322 70.1477H59.2534Z" fill="#240642"/>
<path d="M52.7677 63.5907C53.5554 65.5578 56.2337 66.9216 58.1243 67.7871C58.8595 68.1019 59.5948 68.3904 60.3563 68.6264C60.6713 68.7051 60.8552 69.0198 60.7764 69.3346C60.7239 69.4919 60.6188 69.6231 60.4875 69.7017C59.8836 70.1214 59.3059 70.6197 58.7808 71.1443C57.7567 72.1671 56.8377 73.3998 56.2862 74.7112C56.0762 75.262 55.9186 75.8915 56.0237 76.416C56.155 77.0717 55.7348 77.7012 55.0784 77.8323C54.3431 77.9897 53.6079 77.3865 53.6342 76.6259C53.5817 73.9506 55.8661 71.5377 57.8092 70.0165C58.4657 69.5181 59.1484 69.046 59.9099 68.6789L60.0149 69.7542C58.4132 69.2034 56.8902 68.5215 55.446 67.6298C54.0018 66.7118 52.4788 65.584 51.8486 63.9054C51.6648 63.3022 52.5576 62.9875 52.7677 63.5907Z" fill="#240642"/>
<path d="M57.1528 39.2514L41.0566 38.6482C40.4001 38.6219 39.875 39.1465 39.9012 39.8022C39.9012 40.4316 40.4264 40.9037 41.0566 40.8775L57.1528 40.3792C57.4416 40.3792 57.678 40.1431 57.678 39.8546C57.678 39.5399 57.4416 39.2776 57.1528 39.2514Z" fill="#240642"/>
<path d="M57.1528 51.5261L41.0566 50.9228C40.4001 50.8966 39.875 51.4211 39.9012 52.0768C39.9012 52.7063 40.4264 53.1784 41.0566 53.1522L57.1528 52.6538C57.4416 52.6538 57.678 52.4178 57.678 52.1293C57.678 51.8146 57.4416 51.5523 57.1528 51.5261Z" fill="#240642"/>
<path d="M31.8137 37.7567C31.8137 37.7567 32.0237 37.6518 32.1025 37.5468C32.3651 36.9698 31.5248 36.7862 31.1047 36.7338C29.7918 36.6026 28.5314 37.5993 28.1638 38.8582C27.4811 41.0089 29.2666 43.2645 31.4986 43.1333C33.1003 43.1071 34.6495 41.6121 34.2819 39.986C34.1769 39.5664 33.6255 39.5139 33.4417 39.8811C32.6539 41.0089 31.2622 41.0876 30.6846 39.986C30.317 39.1205 30.7108 38.2288 31.8137 37.7567Z" fill="#240642"/>
<path d="M31.8137 50.0311C31.8137 50.0311 32.0237 49.9262 32.1025 49.8213C32.3651 49.2442 31.5248 49.0606 31.1047 49.0082C29.7918 48.8771 28.5314 49.8737 28.1638 51.1326C27.4811 53.2833 29.2666 55.5389 31.4986 55.4077C33.1003 55.3815 34.6495 53.8865 34.2819 52.2604C34.1769 51.8408 33.6255 51.7883 33.4417 52.1555C32.6539 53.2833 31.2622 53.362 30.6846 52.2604C30.317 51.3949 30.7108 50.5032 31.8137 50.0311Z" fill="#240642"/>
<path d="M45.2578 19.9479L29.1616 19.3447C28.5052 19.3185 27.98 19.843 28.0063 20.4987C28.0063 21.1282 28.5314 21.6003 29.1616 21.574L45.2578 21.0757C45.5467 21.0757 45.783 20.8397 45.783 20.5512C45.783 20.2364 45.5467 19.9742 45.2578 19.9479Z" fill="#240642"/>
</svg>
